/* XPM */
static char * image_tools_xpm[] = {
"24 168 2 1",
" 	c None",
".	c #FFFFFF",
"                        ",
"                        ",
"                        ",
"                    ..  ",
"                   ...  ",
" ..             ......  ",
" ..      .............. ",
" .... ................. ",
"  ......................",
"   .....................",
"  ...................   ",
"  .......    ......     ",
"  .....  ....  ...      ",
" ...... ......  .       ",
"...... ...  ...         ",
"...... ..    ...        ",
"..... ..  ..  ..        ",
" .... ... ..  ..        ",
"       ..    ...        ",
"       ...  ...         ",
"        ......          ",
"         ....           ",
"                        ",
"                        ",
"       ........         ",
"     ............       ",
"    ..............      ",
"    ..............      ",
"   ................     ",
"   ................     ",
"   ................     ",
"       ..    ..         ",
"                        ",
"    ..  ..  ..  ..      ",
"    ..  ..  ... ..      ",
"    ... ..  .. ...      ",
"     .. ..  .. ..       ",
"     ...... .....       ",
"      ..........        ",
"      ..........        ",
"       ........         ",
"       ........         ",
"       ........         ",
"       ........         ",
"        ......          ",
"                        ",
"                        ",
"                        ",
"                        ",
"                        ",
"                        ",
"             ......     ",
"            .........   ",
"           ....   ...   ",
"          ........ ...  ",
"          ......... ..  ",
"        ..  ... ... ..  ",
"        ... ... ......  ",
"      .  ...  ........  ",
"     ...  ... .......   ",
"    .....  ...  ....    ",
"   .......  ... ...     ",
"  .........  ...        ",
"  ..........  ...       ",
"  .. ..  ....  ..       ",
"  .. ......... ...      ",
"  .. .........  ..      ",
"  ... .......   ...     ",
"   .... ....     ..     ",
"    .......      ..     ",
"     ....        ..     ",
"                        ",
"                        ",
"                        ",
"                        ",
"                        ",
"                        ",
"          ....          ",
"    ................    ",
"    ................    ",
"                        ",
"     ..............     ",
"     ..............     ",
"     ..............     ",
"     ...  .  .  ...     ",
"     ...  .  .  ...     ",
"     ...  .  .  ...     ",
"     ...  .  .  ...     ",
"     ...  .  .  ...     ",
"      ..  .  .  ..      ",
"      ..  .  .  ..      ",
"      ..  .  .  ..      ",
"      ..  .  .  ..      ",
"      ............      ",
"      ............      ",
"      ............      ",
"                        ",
"      ...               ",
"      ...               ",
"      ...               ",
"      ...               ",
"      ...               ",
"      ...               ",
"      ...               ",
"      ... ..  ..        ",
"      ..........  ..    ",
"  .   ..............    ",
" ...  ..............    ",
" .... ..............    ",
" ...................    ",
"  ..................    ",
"   .................    ",
"   .................    ",
"    ................    ",
"     ...............    ",
"     ...............    ",
"      .............     ",
"       ...........      ",
"        .........       ",
"                        ",
"                        ",
"                        ",
"        .........       ",
"      ............      ",
"    ................    ",
"    .................   ",
"   .........  .......   ",
"  .........    .......  ",
"  ..........  ........  ",
" ...................... ",
" .......... ........... ",
" .........   .......... ",
" ..........   ......... ",
" ..........  .......... ",
" .........   .......... ",
" .........   .......... ",
"  ........   .........  ",
"  ........   .........  ",
"   .......    .......   ",
"   ..................   ",
"    ................    ",
"      .............     ",
"       ..........       ",
"          ....          ",
"                        ",
" ........      ........ ",
" ........      ........ ",
" ........      ........ ",
" ........      ........ ",
" ........      ........ ",
" ........      ........ ",
" ........      ........ ",
" ........      ........ ",
" ........      ........ ",
" ........      ........ ",
" ........      ........ ",
" ........      ........ ",
" ........      ........ ",
" ........      ........ ",
" ........      ........ ",
" ........      ........ ",
" ........      ........ ",
" ........      ........ ",
" ........      ........ ",
" ........      ........ ",
" ........      ........ ",
" ........      ........ ",
"                        "};
