/* XPM */
static char * image_cannon_xpm[] = {
"48 48 174 2",
"  	c None",
". 	c #FFFFFF",
"+ 	c #F7F7F7",
"@ 	c #FEFEFE",
"# 	c #7B7B7B",
"$ 	c #0E0E0E",
"% 	c #BEBEBE",
"& 	c #E9E9E9",
"* 	c #1D1D1D",
"= 	c #000000",
"- 	c #222222",
"; 	c #555555",
"> 	c #050505",
", 	c #B2B2B2",
"' 	c #B4B4B4",
") 	c #E8E8E8",
"! 	c #CACACA",
"~ 	c #232323",
"{ 	c #585858",
"] 	c #F9F9F9",
"^ 	c #FBFBFB",
"/ 	c #D7D7D7",
"( 	c #F3F3F3",
"_ 	c #EBEBEB",
": 	c #C6C6C6",
"< 	c #404040",
"[ 	c #E1E1E1",
"} 	c #B8B8B8",
"| 	c #070707",
"1 	c #767676",
"2 	c #DFDFDF",
"3 	c #A1A1A1",
"4 	c #868686",
"5 	c #727272",
"6 	c #575757",
"7 	c #363636",
"8 	c #0A0A0A",
"9 	c #6B6B6B",
"0 	c #AFAFAF",
"a 	c #757575",
"b 	c #F2F2F2",
"c 	c #B0B0B0",
"d 	c #777777",
"e 	c #393939",
"f 	c #1E1E1E",
"g 	c #181818",
"h 	c #111111",
"i 	c #0D0D0D",
"j 	c #040404",
"k 	c #F8F8F8",
"l 	c #BFBFBF",
"m 	c #424242",
"n 	c #FAFAFA",
"o 	c #FCFCFC",
"p 	c #EEEEEE",
"q 	c #C8C8C8",
"r 	c #676767",
"s 	c #0C0C0C",
"t 	c #6E6E6E",
"u 	c #0F0F0F",
"v 	c #343434",
"w 	c #474747",
"x 	c #E3E3E3",
"y 	c #AEAEAE",
"z 	c #5F5F5F",
"A 	c #171717",
"B 	c #EDEDED",
"C 	c #505050",
"D 	c #1B1B1B",
"E 	c #D1D1D1",
"F 	c #ACACAC",
"G 	c #010101",
"H 	c #919191",
"I 	c #191919",
"J 	c #323232",
"K 	c #313131",
"L 	c #F4F4F4",
"M 	c #EFEFEF",
"N 	c #737373",
"O 	c #3D3D3D",
"P 	c #1A1A1A",
"Q 	c #6C6C6C",
"R 	c #3E3E3E",
"S 	c #CFCFCF",
"T 	c #030303",
"U 	c #020202",
"V 	c #535353",
"W 	c #9F9F9F",
"X 	c #D9D9D9",
"Y 	c #ECECEC",
"Z 	c #8B8B8B",
"` 	c #141414",
" .	c #CECECE",
"..	c #3C3C3C",
"+.	c #A2A2A2",
"@.	c #DDDDDD",
"#.	c #F0F0F0",
"$.	c #B7B7B7",
"%.	c #606060",
"&.	c #060606",
"*.	c #7E7E7E",
"=.	c #E0E0E0",
"-.	c #9D9D9D",
";.	c #282828",
">.	c #848484",
",.	c #A3A3A3",
"'.	c #121212",
").	c #E6E6E6",
"!.	c #E7E7E7",
"~.	c #989898",
"{.	c #646464",
"].	c #F5F5F5",
"^.	c #4D4D4D",
"/.	c #4B4B4B",
"(.	c #383838",
"_.	c #C7C7C7",
":.	c #090909",
"<.	c #686868",
"[.	c #303030",
"}.	c #D8D8D8",
"|.	c #C9C9C9",
"1.	c #161616",
"2.	c #C0C0C0",
"3.	c #1C1C1C",
"4.	c #DCDCDC",
"5.	c #454545",
"6.	c #464646",
"7.	c #6F6F6F",
"8.	c #242424",
"9.	c #888888",
"0.	c #202020",
"a.	c #D6D6D6",
"b.	c #080808",
"c.	c #7D7D7D",
"d.	c #ADADAD",
"e.	c #707070",
"f.	c #BABABA",
"g.	c #FDFDFD",
"h.	c #E4E4E4",
"i.	c #0B0B0B",
"j.	c #151515",
"k.	c #828282",
"l.	c #EAEAEA",
"m.	c #5D5D5D",
"n.	c #5E5E5E",
"o.	c #BDBDBD",
"p.	c #9B9B9B",
"q.	c #898989",
"r.	c #F1F1F1",
"s.	c #8A8A8A",
"t.	c #E2E2E2",
"u.	c #2F2F2F",
"v.	c #D3D3D3",
"w.	c #717171",
"x.	c #212121",
"y.	c #414141",
"z.	c #525252",
"A.	c #8E8E8E",
"B.	c #A9A9A9",
"C.	c #E5E5E5",
"D.	c #8D8D8D",
"E.	c #D2D2D2",
"F.	c #4F4F4F",
"G.	c #101010",
"H.	c #DADADA",
"I.	c #9A9A9A",
"J.	c #3F3F3F",
"K.	c #F6F6F6",
"L.	c #AAAAAA",
"M.	c #D5D5D5",
"N.	c #3A3A3A",
"O.	c #4C4C4C",
"P.	c #979797",
"Q.	c #ABABAB",
". . . . . . . . . . . . . . . . . . . . . . . . . . . . . . . . . . . . . . . . . . . . . . . . ",
". . . . . . . . . . . . . . . . . . . . . . . . . . . . . . . . . . . . . . . . . . . . . . . . ",
". . . . . . . . . . . . . . . . . . . . . . . . . . . . . . . . . . . . . . . . . . . . . . . . ",
". . . . . . . . . . . . . . . . . . . . . . . . . . . . . . . . . . . . . . . . . . . . . . . . ",
". . . . . . . . . . . . . . . . . . . . . . . . . . . . . . . . . . . . . . . . . . . . . . . . ",
". . . . . . . . . . . . . . . . . . . . . . . . . . . . . . . . . . . . . . . . . . . . . . . . ",
". . . . . . . . . . . . . . . . . . . . . . . . . . . . . . . . . . . . . . . . . . . . . . . . ",
". . . . . . . . . . . . . . . . . . . . . . . . . . . . . . . . . . . . . . . . . . . . . . . . ",
". . . . . . . . . . . . . . . . . . . . . . . . . . . . . . . . . . . . . . . . . . . . . . . . ",
". . . . . . . . . . . . . . . . . . . . . . . . . . . . . . . . . . . . . . . . . . . . . . . . ",
". . . . . . . . . . . . . . . . . . . . . . . . . . . . . . . . . . . . . . . . . + . . . . . . ",
". . . . . . . . . . . . . . . . . . . . . . . . . . . . . . . . . . . . . . . @ # $ % . . . . . ",
". . . . . . . . . . . . . . . . . . . . . . . . . . . . . . . . . . . . . . . & * = - . . . . . ",
". . . . . . . . . . . . . . . . . . . . . . . . . . . . . . . . . . . . . . @ ; = = > , . . . . ",
". . . ' ) . . . . . . . . . . . . . . . . . . . . . . . . . . . . . . . . ! ~ = = = = { ] . . . ",
". ^ * = = / . . . . . . . . . . . . . . . . . . . . . . . . . . ] ( _ : < = = = = = = = [ . . . ",
". } | = = 1 . . . . . . . . . . . . . . . . . . . ] 2 ! ' 3 4 5 6 7 8 = = = = = = = = = 9 . . . ",
". 0 > = = a . . . . . . . . . . . . . . b c d e f g h i | j = = = = = = = = = = = = = = = k . . ",
". l 8 = = m n + . . . . . . . o p q r s = = = = = = = = = = = = = = = = = = = = = = = = = t . . ",
". _ u = = = v w # x . . . o y z A = = = = = = = = = = = = = = = = = = = = = = = = = = = = u B . ",
". . C = = = = = = D E . F - > = = = = = = = = = = = = = = = = = = = = = = = = = = = = = = G H . ",
". . . I = = = = = = J * = = = = = = = = = = = = = = = = = = = = = = = = = = = = = = = = = = K L ",
". . . M N O P = = = = = = = = = = = = = = = = = = = = = = = = = = = = = = = = = = = = = = = = q ",
". . . . @ ( M Q = = = = = = = = = = = = = = = = = = = = = = = = = = = = = = = = = = = = = = = R ",
". . . . . . S > = = = = = = = = = = = = = = = = = = = = = = = = = = = = = = = = = = T h A $ = U ",
". . . . . q U = = = = = = = = = = = = = = = = = = = = = = = = = = = = = = = = = = V W X Y E Z F ",
". . . . & D = = = = = = = = = = = = = = = = = = = = = = = = = = = = = = = = = `  .n . . . . . . ",
". . . @ t = = = = = = = = = = = G u ..+.@.. . #.$.%.P j = = = = = = = = = = m . . . . . . . . . ",
". . . _ &.= = = = = = = = = = U *.=.. . . . . . . . ] -.;.= = = = = = G = >.. . . . . . . . . . ",
". . . ,.= = = = = = = = = = '.).. . . !.~.{.{.4 ! . . . ].^.= = = = = = 0 . . . . . . . . . . . ",
". . . /.= = = = = = = = = (.k . o _.K = = = = = = :.3 ].. . <.= = = :.: . . . . . . . . . . . . ",
". . . A = = = = = = = = u [ . n {.= = = = = = = = = = [.}.. . ; = :.l . . . . . . . . . . . . . ",
"|.1.[.= = = = = = = = = 2.. . ..= = = = = = = = = = = = 3.& . B 8 4.. . . . . . . . . . . . . . ",
"5.= = = = = = = = = = 6.. . 7.= = = = 8.9.2 ) y 7 > = = = 0.. . . . . . . . . . . . . . . . . . ",
"7 = = = = = = = = = = a.. E b.= G = c.o . . . . . d.8 = = = 4 . . . . . . . . . . . . . . . . . ",
"z = = = = = = = = = K b . N = = = e.. . . . . . . . f.= = = D o . . . . . . . . . . . . . . . . ",
"0 = = = = = = = = = {.g.( v = = s M . . @ ) h.n . . . m = = i.l . . . . . . . . . . . . . . . . ",
"M j.= = = = = = = = k.. l.` = = m.^ . . ~.G = n.. . . o.= = U p.. . . . . . . . . . . . . . . . ",
". d = = = = = = = = q.. ).= = = *.. . . D = = = r.. . x = = = s.. . . . . . . . . . . . . . . . ",
". t.j.= = = $ = = = 9.. ) i = = 7.. . . u.= = = . . . @.= = = Z . . . . . . . . . . . . . . . . ",
". . f.8 = = v.r G = w.. B x.= = y.+ . . t.z z.l . . . A.= = > B.. . . . . . . . . . . . . . . . ",
". . . C.D.E.. o x Q V + ] F.= = = E.. . . g.n . . . . s = = G.H.. . . . . . . . . . . . . . . . ",
". . . . . . . . . . . . . I.= = = ` L . . . . . . . J.= = = e . . . . . . . . . . . . . . . . . ",
". . . . . . . . . . . . . K.3.= = = P L.@ . . . |.w = = = = M.. . . . . . . . . . . . . . . . . ",
". . . . . . . . . . . . . . X = = = = &.g N.O.f s = = = = P.. . . . . . . . . . . . . . . . . . ",
". . . . . . . . . . . . . . . ' U = = = = = = = = = = = Q . . . . . . . . . . . . . . . . . . . ",
". . . . . . . . . . . . . . . . q 7 = = = = = = = = 3.P.. . . . . . . . . . . . . . . . . . . . ",
". . . . . . . . . . . . . . . . . L ! z | = = = w Q.Y . . . . . . . . . . . . . . . . . . . . . "};
