/* XPM */
static char * image_ball_xpm[] = {
"10 10 16 1",
" 	g #000000",
".	g #CACACA",
"+	g #F9F9F9",
"@	g #D5D5D5",
"#	g #888888",
"$	g #FDFDFD",
"%	g #FFFFFF",
"&	g #FEFEFE",
"*	g #969696",
"=	g #FCFCFC",
"-	g #EEEEEE",
";	g #F5F5F5",
">	g #BBBBBB",
",	g #C6C6C6",
"'	g #EFEFEF",
")	g #F6F6F6",
"   .++@   ",
" #$%%%%&* ",
" $%%%%%%& ",
".%%%%%%%%@",
"=%%%%%%%%&",
"=%%%%%%%%&",
"-%%%%%%%%;",
" &%%%%%%% ",
" >%%%%%%, ",
"   '&&)   "};
