/* XPM */
static char * image_ball_xpm[] = {
"25 25 2 1",
" 	c None",
"@	c #FFFFFF",
"       @@@@@@@@@@@       ",
"      @@@@@@@@@@@@@      ",
"    @@@@@@@@@@@@@@@@@    ",
"    @@@@@@@@@@@@@@@@@    ",
"  @@@@@@@@@@@@@@@@@@@@@  ",
"  @@@@@@@@@@@@@@@@@@@@@  ",
" @@@@@@@@@@@@@@@@@@@@@@@ ",
"@@@@@@@@@@@@@@@@@@@@@@@@@",
"@@@@@@@@@@@@@@@@@@@@@@@@@",
"@@@@@@@@@@@@@@@@@@@@@@@@@",
"@@@@@@@@@@@@@@@@@@@@@@@@@",
"@@@@@@@@@@@@@@@@@@@@@@@@@",
"@@@@@@@@@@@@@@@@@@@@@@@@@",
"@@@@@@@@@@@@@@@@@@@@@@@@@",
"@@@@@@@@@@@@@@@@@@@@@@@@@",
"@@@@@@@@@@@@@@@@@@@@@@@@@",
"@@@@@@@@@@@@@@@@@@@@@@@@@",
"@@@@@@@@@@@@@@@@@@@@@@@@@",
" @@@@@@@@@@@@@@@@@@@@@@@ ",
"  @@@@@@@@@@@@@@@@@@@@@  ",
"  @@@@@@@@@@@@@@@@@@@@@  ",
"    @@@@@@@@@@@@@@@@@    ",
"    @@@@@@@@@@@@@@@@@    ",
"      @@@@@@@@@@@@@      ",
"       @@@@@@@@@@@       "};
