/* XPM */
static char * image_ball_xpm[] = {
"10 10 8 1",
" 	c #FFFFFF",
".	c #828282",
"+	c #454545",
"@	c #A8A8A8",
"#	c #2C2C2C",
"$	c #070707",
"%	c #060606",
"&	c #050505",
"   .++.   ",
" @#$%%$#@ ",
" #%&&&&%# ",
".$&&&&&&$.",
"+%&&&&&&%+",
"+%&&&&&&%+",
".$&&&&&&$.",
" #%&&&&%# ",
" @#$%%$#@ ",
"   .++.   "};
