/* XPM */
static char * image_toolbox_frame_xpm[] = {
"28 28 2 1",
" 	c None",
".	c #ffffff",
"............................",
"............................",
"..                        ..",
"..                        ..",
"..                        ..",
"..                        ..",
"..                        ..",
"..                        ..",
"..                        ..",
"..                        ..",
"..                        ..",
"..                        ..",
"..                        ..",
"..                        ..",
"..                        ..",
"..                        ..",
"..                        ..",
"..                        ..",
"..                        ..",
"..                        ..",
"..                        ..",
"..                        ..",
"..                        ..",
"..                        ..",
"..                        ..",
"..                        ..",
"............................",
"............................"};
